<svg width="169" height="125" viewBox="0 0 169 125" fill="none" xmlns="http://www.w3.org/2000/svg">
<g clip-path="url(#clip0_5_2003)">
<path d="M57.9915 1.55665L66.488 1.55256L66.9006 1.79813L68.3854 1.79742L68.798 2.04298L70.2004 2.12423L70.6954 2.36976L71.5203 2.36936L72.2629 2.69669L72.5103 2.61465L73.5004 2.94186L74.0779 3.18735L74.4079 3.26911L75.0679 3.35072L76.883 4.08714L77.7906 4.41439L78.2856 4.65992L79.0282 4.90532L80.9259 5.80555L82.0811 6.46037L83.4838 7.27891L84.309 7.85196L85.2166 8.42498L86.0418 8.99803L86.867 9.65301L87.3621 9.98046L88.5175 11.0449L89.2602 11.5361L92.4788 14.7295L92.8916 15.3846L92.8917 15.5485L93.2217 15.7122L93.7995 16.3673L94.1296 16.7767L94.3773 17.1862L94.955 17.8413L95.2853 18.4146L95.8631 19.2335L96.5235 20.2163L97.1841 21.5267L97.5969 22.2638L98.0922 23.0828L98.7527 24.2293L99.0005 24.9665L99.7437 26.6046L99.9915 27.2598L100.157 27.9151L100.322 28.3247L100.487 28.8161L100.57 28.898L100.653 29.7172L100.818 29.7171L100.9 29.8809L100.9 30.5363L101.148 30.9458L101.231 31.0276L101.231 31.9288L101.479 32.0925L101.562 33.1575L101.809 33.3212L101.81 34.8777L102.057 35.0414L102.059 37.581L102.389 37.6627L102.391 43.1515L102.144 43.3155L102.063 45.8551L101.815 46.019L101.816 47.4936L101.569 47.7395L101.487 49.0503L101.239 49.2142L101.157 49.9516L100.91 50.1975L100.993 50.7709L100.828 51.1806L100.663 51.1806L100.581 51.9999L100.416 52.1638L100.251 52.9012L100.004 53.5567L99.5097 54.7038L99.0978 55.769L98.4385 57.0801L97.7792 58.3092L97.0375 59.8661L96.7077 60.2758L96.5428 60.2759L96.4605 60.6856L96.0484 61.4231L95.7186 61.8328L95.4714 62.3245L94.8118 62.9802L94.647 63.3898L94.0698 64.0455L93.9049 64.1275L93.7402 64.6191L92.6683 65.6027L92.5035 66.0124L91.4316 67.0779L91.0194 67.5696L90.6071 67.8975L90.0301 68.7989L89.3705 69.4546L88.876 70.4379L88.5465 71.4211L88.5469 72.1584L88.7945 72.404L88.7949 73.2233L88.9601 73.7147L89.373 74.6156L89.5382 75.189L90.1988 76.4994L90.5289 76.827L91.1069 77.9736L91.6846 78.5468L91.9323 79.0382L92.0149 79.2839L92.3449 79.4476L92.5926 79.7752L92.8403 80.2666L94.7385 82.1499L95.2335 82.3954L96.7188 83.3777L101.174 85.5875L101.422 85.7512L102.082 85.9147L106.207 87.9608L106.95 88.4519L107.693 88.8612L108.435 89.3524L109.096 89.9255L109.838 90.6624L110.333 90.908L110.911 91.3992L111.159 91.9726L112.067 92.8733L112.81 94.1017L113.635 95.6578L113.718 96.3951L113.883 96.395L113.966 96.5588L113.966 97.2961L114.214 97.6237L114.296 98.1152L114.297 98.9344L114.544 99.0981L114.546 102.457L114.299 102.703L114.299 103.686L114.052 104.096L113.887 104.915L113.228 106.472L112.651 107.537L111.662 108.52L111.579 108.93L111.002 109.176L110.013 110.16L108.858 110.734L108.198 110.816L107.868 111.062L104.569 111.063L103.578 110.081L103.578 108.606L104.155 107.951L104.649 107.459L104.814 107.459L104.979 107.131L105.309 106.803L105.474 106.803L105.556 106.557L105.721 106.557L106.216 105.574L106.298 105L106.463 104.837L106.462 101.723L106.214 101.478L106.214 100.986L105.718 100.413L105.14 99.2665L103.82 97.9564L103.242 97.7109L102.912 97.3833L101.18 96.565L100.437 96.1557L100.025 95.9921L99.6945 95.8284L99.1995 95.7467L99.0344 95.5829L97.9619 95.1738L97.6318 94.9282L97.3019 95.0103L96.9717 94.6828L96.3943 94.6831L96.0642 94.4375L95.4041 94.1101L94.9916 93.9464L94.6616 93.7828L94.2491 93.701L91.1137 92.146L90.2886 91.6549L90.2885 91.4911L89.7935 91.3274L89.2983 90.9181L88.6382 90.5907L88.3906 90.3451L87.8956 90.0995L87.2353 89.4445L86.6578 89.199L83.7693 86.3331L83.1914 85.4323L82.6136 84.6133L82.0357 83.7125L81.7055 83.303L81.0449 81.8287L80.7145 81.0097L80.219 79.6992L80.0537 79.1258L79.8887 79.044L79.9738 84.5327L80.2214 84.7783L80.3048 86.6625L80.4698 86.7443L80.5526 87.3997L80.553 88.1369L80.718 88.1369L80.9659 89.0379L81.1311 89.4474L81.2963 89.9389L81.7091 90.7579L81.8744 91.4132L82.7827 93.215L83.1954 93.7063L83.443 94.1158L84.1033 94.8528L84.2685 95.2623L85.8365 96.8181L86.0017 97.2276L87.7349 98.9471L88.1473 99.0289L88.3126 99.5203L89.7981 100.994L90.2109 101.731L90.8712 102.468L91.1189 102.878L91.6967 103.779L92.6876 105.908L92.8528 106.4L93.0182 107.137L93.2658 107.546L93.2664 108.611L93.5139 108.775L93.5157 112.543L93.2683 112.707L93.2687 113.527L93.0214 113.936L92.8568 114.592L92.0327 116.231L91.2906 117.05L91.1259 117.46L90.4662 118.115L89.9713 118.198L89.8065 118.525L89.2293 119.017L88.7345 119.263L88.4047 119.591L87.7448 119.673L87.3325 119.919L86.92 119.919L86.6727 120.165L86.2603 120.247L85.3528 120.166L85.2705 120.412L85.023 120.494L84.1981 120.494L83.9505 120.249L83.2906 120.249L82.8781 120.085L81.6404 119.43L80.8151 118.612L80.8142 116.727L81.2265 116.4L81.7213 116.154L81.8038 116.072L83.0411 115.989L83.7833 115.579L84.5254 114.841L84.855 114.186L84.9372 113.531L85.1846 113.448L85.1836 111.319L85.101 111.073L84.936 110.991L84.8531 110.254L84.6055 109.926L84.5227 109.353L84.0274 108.534L83.6147 108.124L83.202 107.469L81.0562 105.34L80.3961 105.013L79.9009 104.44L79.6533 104.276L79.6533 104.112L79.3232 103.948L77.7552 102.393L77.2601 102.147L77.0125 101.901L76.8473 101.492L74.9492 99.6087L74.619 99.1992L74.3713 98.7078L73.7936 98.1346L73.5459 97.6432L73.0506 96.9062L72.5553 96.251L71.9773 95.1044L71.5646 94.4492L71.0692 93.5483L70.8214 92.8112L70.1608 91.5007L69.5828 90.2722L69.0047 88.8798L68.7568 88.0607L68.3439 86.9959L68.0961 86.4226L67.9307 85.6034L67.6829 84.7843L67.6828 84.6205L67.5179 84.7844L67.521 91.3381L67.2736 91.5021L67.193 95.4344L66.8632 95.5984L66.9458 95.926L66.8644 98.138L66.617 98.3019L66.6177 99.8584L66.2879 100.022L66.2885 101.333L66.1236 101.497L65.959 102.316L65.7941 102.398L65.7944 103.054L65.2999 104.119L65.0528 104.856L64.6408 105.676L64.3936 106.413L63.7344 107.888L63.3225 108.953L63.1576 109.199L62.993 109.937L62.8281 110.1L62.8284 110.756L62.5811 111.166L62.4988 111.575L62.4992 112.394L62.2519 112.64L62.2524 113.623L62.4999 113.869L62.5005 115.016L62.7481 115.262L62.8309 115.999L63.3261 116.408L63.4913 116.9L64.3166 117.718L65.6367 118.373L66.4616 118.373L67.3692 118.782L67.782 119.437L67.8647 119.929L67.6176 120.666L67.2879 121.158L67.0406 121.486L66.8756 121.486L66.8757 121.649L66.051 122.141L65.3912 122.469L65.3088 122.551L61.6792 122.553L61.5141 122.225L61.0192 122.308L59.699 121.653L58.7914 121.162L58.5438 120.916L58.0487 120.671L56.3156 118.951L56.0679 118.46L55.5726 117.723L54.7469 116.085L54.7466 115.429L54.499 115.102L54.4966 110.268L54.744 110.022L54.7433 108.548L54.9907 108.384L54.9903 107.565L55.0727 107.319L55.32 107.155L55.3195 106.008L55.6493 105.598L55.6488 104.697L55.8962 104.533L55.8958 103.714L56.2256 103.222L56.225 102.075L56.4724 101.911L56.5538 99.6994L56.8012 99.4535L56.7991 95.1117L57.0464 94.8658L57.1266 89.9505L56.7965 89.7868L56.7963 89.2953L57.0436 89.0494L57.1244 85.5267L56.9595 85.6087L56.5476 86.6739L55.4767 89.7874L54.6527 91.7539L52.5924 95.851L52.2626 96.1789L51.6857 97.326L51.3559 97.6539L51.1087 98.1455L50.7789 98.5553L50.614 98.5554L50.614 98.7192L50.4491 98.8012L50.2844 99.2928L49.5423 100.03L49.2951 100.604L48.553 101.342L48.3881 101.424L48.2234 101.915L43.9359 106.177L43.6059 106.177L43.0288 106.833L42.6166 107.243L42.0392 107.489L41.3796 108.145L40.8023 108.309L40.8024 108.473L40.2251 108.801L39.3179 109.293L38.9056 109.62L36.7614 110.686L36.514 110.85L36.0191 110.851L35.6892 111.097L34.947 111.425L34.2045 111.425L34.0397 111.671L33.2973 111.753L33.2149 111.917L32.555 111.999L27.9355 112.001L27.7704 111.674L27.2755 111.756L25.9553 111.101L25.4602 110.692L24.7176 110.283L24.2224 109.709L23.8097 109.3L23.1492 108.071L22.8189 107.416L22.8178 105.122L23.2299 104.385L23.5597 103.975L24.7143 103.401L25.1268 103.565L25.787 104.138L26.1172 104.547L26.6947 104.711L27.0248 105.12L27.3548 105.202L27.7673 105.284L27.9324 105.448L29.2522 105.447L29.4171 105.201L30.1595 105.119L30.5718 104.873L30.9017 104.709L31.3139 104.217L32.0561 103.807L33.8701 102.004L34.4474 101.84L34.5298 101.594L34.8596 101.266L35.0246 101.266L35.1069 101.02L35.7666 100.447L36.8385 99.3812L37.3333 99.1352L39.3121 97.1681L39.4769 96.7585L40.3838 95.8569L40.7135 95.2013L41.0433 94.8735L41.2905 94.3819L41.7851 93.6443L43.1861 90.8583L43.2684 90.3667L43.6805 89.6293L43.7629 89.5473L43.7626 88.8919L43.9274 88.4822L44.0098 88.4003L44.1745 87.6629L44.3394 87.499L44.4213 86.2701L44.5862 86.1062L44.7488 81.1908L44.9137 81.0269L44.9952 79.0607L44.7478 79.0609L44.6657 79.8801L43.9241 81.6008L42.8527 83.7313L42.3581 84.4688L41.781 85.1245L41.5338 85.5342L40.8742 86.3537L39.4726 87.7471L39.3076 87.7472L39.3077 87.911L38.8129 88.3208L38.4831 88.7306L37.9058 88.8128L37.7409 89.1406L37.2462 89.6323L36.7514 89.7964L36.3391 90.2882L36.0093 90.5341L35.5969 90.6981L35.1022 91.108L33.7826 91.764L31.8858 92.666L30.9786 93.158L30.6487 93.2401L30.3188 93.2402L30.0714 93.4861L29.5765 93.4863L29.3291 93.7322L28.5867 93.8145L28.0919 94.1424L27.3495 94.1428L27.2671 94.3067L26.6072 94.3889L26.1948 94.3891L26.0299 94.635L23.3903 94.7181L22.8953 94.7184L22.7305 94.9642L20.0083 94.9655L19.6782 94.7199L18.8533 94.7203L17.5334 94.639L17.1208 94.3935L16.4609 94.3938L15.7184 94.1484L15.1409 93.9848L14.6458 93.8212L14.0684 93.7396L13.2433 93.3303L12.9133 93.2486L12.4183 93.085L11.0981 92.4302L9.94291 91.7754L9.28279 91.3661L8.78765 90.9568L8.21006 90.6294L7.05464 89.483L6.47709 89.2375L5.98187 88.6643L5.73417 88.1729L4.57875 87.0265L3.83574 85.7981L3.42294 85.061L3.42286 84.8971L3.25788 84.8972L2.67997 83.9144L2.59721 83.341L2.10183 82.4401L1.93654 81.7848L1.77136 81.3753L1.60614 80.8839L1.52357 80.7201L1.44037 79.2455L1.19278 78.9999L1.19074 74.7399L1.43813 74.576L1.52003 73.3471L1.76738 73.1012L1.76703 72.3639L2.0143 71.9542L2.17893 71.2168L2.92067 69.8238L3.25036 69.2502L3.49767 68.9224L3.74495 68.5127L4.65187 67.5292L5.55883 66.6276L5.72381 66.6275L5.80619 66.3817L5.97117 66.3816L6.05354 66.1358L6.87821 65.6439L8.44517 64.9059L8.85751 64.6599L9.7649 64.6595L9.84727 64.4137L12.322 64.4125L12.6521 64.6581L13.312 64.6578L14.1371 65.067L14.6322 65.4763L15.1273 65.7219L15.8701 66.4588L16.2829 67.1959L16.613 67.5234L16.6133 68.1788L16.8608 68.2606L16.9436 68.834L16.8614 69.5713L16.2843 70.227L16.1194 70.309L13.9746 70.31L13.8923 70.5558L13.0674 70.7201L12.6551 70.966L12.4076 70.9662L12.2428 71.2939L11.5006 71.7039L11.0883 72.1137L10.5939 73.1789L10.4291 73.5067L10.4295 74.4897L10.1822 74.8175L10.1004 76.1283L10.3479 76.2101L10.4305 76.5378L10.4311 77.6847L10.6788 78.0942L10.7615 78.6676L11.5872 80.2237L11.8348 80.6332L11.8349 80.797L12.165 80.9607L12.4952 81.4521L12.7428 81.8616L13.0729 82.1891L13.6505 82.4346L13.6506 82.5984L13.9806 82.7621L14.3107 83.0896L16.0434 83.908L16.8686 84.3992L17.446 84.317L18.0235 84.6444L19.0959 84.6438L19.3435 84.8895L23.0556 84.9696L23.2204 84.6419L24.4578 84.6413L24.6227 84.3954L25.1176 84.3133L25.6125 84.313L25.8599 84.0671L26.6022 83.9849L26.6846 83.821L27.262 83.5749L27.5918 83.4109L28.0868 83.4107L28.4166 83.0009L29.7361 82.3449L30.1484 82.017L30.6432 81.6891L33.6114 78.7385L34.106 77.9191L34.683 77.0996L35.5072 75.5427L35.7544 75.051L35.8366 74.4775L36.084 74.2316L36.0837 73.7401L36.331 73.4123L36.4129 72.1015L36.6603 71.9376L36.5776 71.528L36.4125 71.3642L36.4122 70.6269L36.1645 70.2174L35.8344 69.808L35.5041 69.2347L32.0379 65.7957L31.7902 65.3042L30.7173 64.2398L30.1394 63.3389L29.6442 62.7657L28.3234 60.8002L27.663 59.7356L27.1676 58.9166L26.92 58.589L26.2594 57.2786L26.2591 56.5413L25.764 56.1319L25.4338 55.6406L25.2685 54.9853L24.8556 54.0843L24.6903 53.5109L24.1947 52.0366L23.9469 51.4633L23.6164 50.3165L23.5336 49.7431L23.3686 49.5793L23.2857 48.6782L23.1206 48.4326L23.0376 47.3676L22.7899 46.9581L22.7066 45.4017L22.4591 45.2379L22.4548 36.3904L22.7022 36.1445L22.7838 34.2603L23.0311 34.0144L23.0306 32.9494L23.2779 32.6216L23.36 31.7204L23.6073 31.3926L23.6894 30.4915L23.8542 30.2456L24.266 28.8527L25.2545 25.985L26.4082 23.6087L27.0676 22.3796L27.6445 21.2324L28.1391 20.4949L28.5511 19.7574L29.5403 18.2823L30.1999 17.4628L30.4471 17.0531L31.0242 16.3974L31.5189 15.8237L32.0135 15.0862L35.9712 11.1521L37.4554 10.0044L38.115 9.34875L39.0222 8.77486L41.4961 7.13524L42.3208 6.64331L43.5578 5.98735L44.1351 5.82323L44.3 5.49546L44.9597 5.16746L45.0422 5.0855L45.7845 4.9213L47.1865 4.18333L47.7639 4.10113L48.0937 3.85521L48.7536 3.77297L48.836 3.60908L49.5784 3.52681L49.8258 3.28092L50.4857 3.19868L50.6506 3.03476L51.3104 2.95252L51.5578 2.70664L52.5476 2.62424L52.7125 2.46032L53.5374 2.378L53.9499 2.3778L54.1972 2.13192L55.517 2.04936L55.5994 1.88548L56.5893 1.80308L57.9091 1.72053L57.9915 1.55665Z" fill="#E23F2E"/>
<path d="M107.419 34.7111L163.1 34.6844L164.42 35.3391L165.411 36.2398L165.988 36.813L166.484 37.6319L166.649 38.3691L166.897 38.6967L166.918 83.7536L166.754 84.3271L166.424 85.3923L165.93 86.2936L165.188 87.1132L164.528 87.6051L163.126 88.2611L162.879 88.4251L115.199 88.448L114.456 87.711L113.796 87.3017L113.053 86.5648L112.393 86.2374L111.816 85.6643L110.496 85.0095L109.835 84.6002L109.835 84.4364L109.175 84.2729L109.01 84.1091L108.433 84.0275L107.03 83.2908L106.453 83.0453L106.452 82.8815L105.875 82.8818L104.39 82.1452L104.307 82.0633L103.73 81.9817L102.162 81.1632L101.172 80.6722L100.842 80.3446L100.182 80.0173L99.9342 79.7716L99.4392 79.5261L99.109 79.1986L98.449 78.8712L96.9634 77.3973L96.4681 76.5783L95.8903 75.7594L95.5601 75.268L94.3215 72.811L94.4863 72.4013L94.7337 72.1554L94.7334 71.6639L95.3106 71.0082L95.4755 71.0081L95.4755 70.8443L95.9702 70.4345L96.4648 69.615L97.1244 68.9593L97.8663 68.0578L98.1136 67.5662L99.0205 66.6646L99.2678 66.1729L99.9273 65.4353L100.175 64.9437L100.834 64.0422L101.411 63.1408L102.071 62.1574L102.812 60.8463L104.131 58.2242L104.625 57.159L105.202 55.4384L105.614 54.2913L106.108 53.0622L106.273 52.0791L106.438 51.9151L106.52 51.014L106.767 50.6862L106.767 50.0308L107.014 49.6211L107.096 48.3103L107.343 48.2282L107.342 46.426L107.507 46.1801L107.672 46.18L107.67 41.5924L107.917 41.3465L107.917 40.1177L107.669 39.8721L107.667 35.8579L107.42 35.4484L107.419 34.7111Z" fill="#0A1115"/>
<path d="M160.939 0.606039L160.939 0.851803L160.197 1.99906L160.94 2.736L160.94 2.89984L161.188 2.98165L161.353 3.80078L161.518 3.96455L161.601 4.61988L161.849 4.94745L161.932 5.84854L162.097 5.93039L162.179 6.66764L162.427 6.91329L162.51 7.89631L162.758 8.14195L162.758 8.7154L163.005 8.96105L163.088 9.94407L163.336 10.1897L163.336 10.927L163.584 11.2546L163.667 11.9099L163.914 12.2375L163.915 12.8929L164.162 13.3023L164.245 13.9577L164.493 14.2033L164.494 16.3333L164.082 17.0708L163.752 17.3986L163.505 17.8903L162.185 18.5463L161.608 18.6285L161.278 18.7925L161.03 18.8745L160.535 18.8748L160.371 19.0387L159.546 19.121L159.133 19.367L158.638 19.4491L158.144 19.4494L157.731 19.6953L156.906 19.7776L156.576 20.0236L156.082 20.0238L155.752 20.2697L155.422 20.3518L154.844 20.3521L154.432 20.598L153.607 20.5984L153.525 20.8442L153.03 20.9264L152.535 20.9266L152.37 21.0906L151.545 21.1729L151.133 21.4188L150.143 21.4193L149.648 21.7472L148.906 21.6657L148.823 21.9115L147.916 22.0758L147.916 22.2396L147.421 22.4037L146.926 22.4039L146.761 22.5678L145.936 22.6502L145.524 22.8961L145.029 22.9783L144.534 22.9785L144.369 23.1424L143.297 23.3068L142.885 23.5528L142.06 23.5532L142.06 23.717L141.483 23.8811L140.988 23.8814L140.658 24.1273L139.998 24.1276L139.915 24.3734L139.421 24.4556L138.926 24.4558L138.761 24.6197L137.936 24.702L137.276 25.03L136.616 25.0304L136.204 25.2763L135.956 25.3584L135.296 25.2768L135.214 25.5226L134.637 25.6048L134.224 25.605L133.977 25.8508L133.564 25.933L132.987 25.9332L132.822 26.0972L132.245 26.1794L131.75 26.2615L131.338 26.5075L130.925 26.5077L130.76 26.6716L129.688 26.836L129.276 27.0819L128.451 27.0823L128.451 27.2462L127.956 27.4103L127.378 27.4105L127.213 27.5745L126.141 27.7388L125.976 27.9027L125.564 27.9849L125.069 27.9851L124.574 28.2311L123.749 28.2315L123.749 28.3953L123.172 28.5595L122.595 28.6417L122.017 28.8877L121.44 28.888L121.027 29.1339L120.533 29.2161L119.955 29.4621L119.378 29.4624L119.213 29.6263L118.141 29.7907L117.728 30.0367L116.903 30.0371L116.903 30.2009L115.831 30.3653L115.666 30.5292L115.006 30.6114L114.264 30.6118L114.182 30.8576L113.769 30.9397L113.109 30.8581L113.027 31.022L111.954 31.1863L111.79 31.4322L111.295 31.5143L110.8 31.5146L110.717 31.6785L110.057 31.7607L109.233 31.7611L109.233 32.0069L107.17 32.0898L107.088 32.0079L107.005 31.2706L106.758 31.025L106.757 30.2058L106.509 29.8782L106.426 28.6494L106.179 28.4038L106.096 27.5846L105.931 27.5847L105.765 26.5198L105.6 26.1922L105.435 25.6188L105.105 24.6359L105.022 24.554L104.857 23.8168L104.609 23.0796L104.196 22.2606L103.948 21.4415L103.535 20.4586L103.04 19.3939L102.132 17.5921L102.049 17.3463L102.049 16.4452L102.131 16.1994L102.543 15.7896L103.285 15.3796L103.615 15.2156L104.358 15.2972L104.523 14.9694L105.182 14.9691L105.347 14.7233L106.42 14.6408L106.585 14.395L107.574 14.3945L107.739 14.1487L108.234 14.0665L108.812 14.1482L108.894 13.8204L109.636 13.8201L109.966 13.738L110.049 13.5741L110.626 13.4919L111.121 13.4917L111.286 13.2458L112.358 13.2453L112.441 12.9995L113.018 12.9173L113.513 12.999L113.595 12.6713L114.09 12.5891L114.338 12.6709L114.668 12.5888L114.833 12.343L115.905 12.3425L115.987 12.0967L116.73 12.0144L116.895 11.7685L117.967 11.768L118.049 11.5222L118.627 11.44L119.122 11.5217L119.287 11.1939L119.699 11.1118L119.946 11.1936L120.359 11.0296L120.689 10.8656L121.431 10.8652L121.596 10.6194L122.091 10.5372L122.668 10.5369L122.833 10.2911L123.906 10.2906L123.988 10.0448L124.73 9.9625L124.895 9.71666L125.225 9.63458L126.215 9.6341L126.38 9.38826L127.122 9.46982L127.287 9.14206L127.7 9.05994L128.277 9.05966L128.442 8.81381L129.432 8.81334L129.597 8.56749L130.091 8.48533L130.669 8.56698L130.834 8.23921L131.906 8.2387L131.906 7.99293L132.483 7.91073L132.978 7.9105L133.143 7.66465L133.968 7.66426L134.051 7.41845L134.545 7.33629L135.453 7.33586L135.535 7.09005L136.278 7.00777L136.442 6.76193L137.432 6.76145L137.597 6.51561L138.092 6.43345L138.67 6.51509L138.752 6.18737L139.247 6.10521L139.494 6.18701L139.824 6.10493L139.907 5.94105L140.484 5.85885L140.979 5.85861L141.144 5.61277L141.639 5.53061L142.216 5.53033L142.381 5.28449L143.371 5.28401L143.536 5.03817L144.031 4.95601L144.608 5.03765L144.69 4.70993L145.763 4.70941L145.928 4.38165L146.67 4.46321L146.752 4.13548L147.247 4.05332L147.825 4.05305L147.99 3.8072L148.98 3.80673L149.144 3.56088L149.639 3.47872L150.217 3.56037L150.382 3.2326L151.289 3.23217L151.454 2.98632L152.031 2.90412L152.526 2.90389L152.691 2.65804L153.186 2.57588L153.763 2.65753L153.928 2.32976L154.918 2.32929L155.083 2.08344L156.155 2.08293L156.32 1.75516L157.063 1.7548L157.31 1.83661L157.392 1.50888L159.207 1.42609L159.455 1.58981L159.867 1.58961L160.527 1.09777L160.939 0.606039Z" fill="#0C1216"/>
<path d="M78.6299 34.3973L81.3521 34.396L82.5896 34.6412L83.8272 35.1321L84.8173 35.7051L85.8901 36.5238L86.6329 37.2607L87.4583 38.3253L88.1187 39.4719L88.5317 40.4547L88.8623 41.7653L89.0275 42.3387L89.1104 43.2398L89.1109 44.2229L88.9466 45.6156L88.6173 47.0084L88.123 48.2375L87.546 49.2208L86.8041 50.2042L85.7322 51.2697L84.7427 52.0075L83.753 52.5814L82.5984 52.9916L81.5261 53.2379L80.6188 53.3202L79.2164 53.3209L78.0615 53.1576L76.9065 52.8305L75.5038 52.1758L74.3485 51.3571L73.6058 50.7021L72.6153 49.3918L71.9548 48.2453L71.3766 46.689L71.0458 44.8869L71.0449 43.0027L71.4564 40.9545L72.0331 39.3977L72.61 38.4143L73.2695 37.5129L74.5063 36.2835L75.166 35.7916L76.3205 35.1357L77.5576 34.6436L78.6299 34.3973Z" fill="#FDFDFD"/>
<path d="M43.6539 34.4141L46.1287 34.4129L47.4486 34.658L48.8512 35.2308L49.8414 35.8038L50.7491 36.4587L51.7395 37.4413L52.565 38.6697L53.3907 40.3897L53.8865 42.1917L53.9697 43.7482L53.8881 45.4686L53.4764 47.1072L52.8997 48.5002L52.3227 49.4016L51.6632 50.303L51.1685 50.8767L50.2615 51.6145L49.3543 52.1883L48.0348 52.8444L46.8801 53.1726L45.5603 53.3371L44.323 53.3377L42.9205 53.1745L41.6005 52.7655L40.2803 52.1108L39.2076 51.2921L38.1347 50.2276L37.4743 49.3268L36.979 48.5078L36.4835 47.3612L36.0702 45.641L35.9874 44.9857L35.9864 42.9376L36.1508 41.6268L36.7274 39.9062L37.3867 38.5951L38.211 37.4478L39.4478 36.2184L40.2724 35.6445L41.262 35.0706L42.7466 34.5784L43.6539 34.4141Z" fill="#FDFDFD"/>
<path d="M44.2518 37.9685L45.6361 37.9678L46.3745 38.1239L47.1591 38.4886L47.713 38.8534L48.2208 39.2704L48.7749 39.8959L49.2367 40.678L49.6987 41.7729L49.9761 42.9201L50.0227 43.911L49.9771 45.0062L49.7469 46.0493L49.4243 46.936L49.1015 47.5098L48.7327 48.0837L48.456 48.4489L47.9486 48.9185L47.4412 49.2838L46.7031 49.7013L46.0572 49.9103L45.3189 50.0149L44.6267 50.0152L43.8422 49.9113L43.1038 49.6509L42.3653 49.2341L41.7651 48.7128L41.1649 48.0352L40.7955 47.4617L40.5184 46.9403L40.2412 46.2103L40.0099 45.1153L39.9636 44.6981L39.9629 43.3943L40.0548 42.5598L40.3773 41.4645L40.7461 40.6299L41.2072 39.8996L41.899 39.117L42.3602 38.7517L42.9138 38.3864L43.7442 38.0731L44.2518 37.9685Z" fill="#E23F2E"/>
<path d="M79.46 37.9516L80.8444 37.9509L81.5828 38.107L82.3674 38.4717L82.9213 38.8365L83.4291 39.2535L83.9831 39.879L84.4449 40.661L84.9069 41.756L85.1843 42.9032L85.231 43.894L85.1853 44.9892L84.9551 46.0324L84.6325 46.9191L84.3098 47.4929L83.9409 48.0668L83.6642 48.432L83.1569 48.9016L82.6494 49.2669L81.9113 49.6844L81.2654 49.8933L80.5271 49.998L79.835 49.9983L79.0505 49.8944L78.312 49.634L77.5735 49.2171L76.9734 48.6959L76.3732 48.0182L76.0038 47.4448L75.7266 46.9234L75.4494 46.1934L75.2182 45.0983L75.1718 44.6811L75.1712 43.3774L75.2631 42.5429L75.5856 41.4476L75.9543 40.613L76.4154 39.8826L77.1072 39.1L77.5685 38.7348L78.122 38.3694L78.9525 38.0561L79.46 37.9516Z" fill="#E23F2E"/>
<path d="M126.052 13.7303L126.299 13.7301L126.135 14.5494L125.476 17.1712L124.735 19.9569L123.912 23.2342L123.747 23.6439L123.582 24.2174L123.005 24.4635L121.19 24.9559L119.128 25.4484L114.922 26.5154L114.344 26.5157L115.58 21.8455L116.568 18.0767L116.979 16.438L117.227 15.9464L120.361 15.1257L125.31 13.8945L126.052 13.7303Z" fill="#FDFDFD"/>
<path d="M150.631 7.57433L150.796 7.73809L150.631 8.06586L150.467 8.96707L149.891 11.1792L149.232 13.7191L148.655 15.9313L148.161 17.8976L147.667 18.1436L139.089 20.2777L138.924 20.2778L139.088 19.3766L139.5 17.738L140.406 14.3787L140.982 12.1666L141.476 10.1183L141.723 9.79049L142.713 9.46233L143.95 9.21597L145.022 8.88777L147.167 8.39521L148.404 8.06693L149.806 7.73857L150.631 7.57433Z" fill="#FDFDFD"/>
<path d="M116.338 56.1703L120.216 56.1685L121.206 56.3318L121.866 56.6592L122.196 57.0686L122.361 57.8878L122.364 63.2127L122.199 63.9501L121.539 64.5238L121.374 64.6058L119.807 64.6885L116.095 64.6903L115.105 64.6088L114.527 64.0357L114.28 63.5443L114.277 57.564L114.607 56.8265L115.019 56.4986L116.338 56.1703Z" fill="#FDFDFD"/>
<path d="M115.753 39.1309L120.95 39.1284L121.857 39.4557L122.188 39.947L122.353 40.8481L122.355 45.9272L122.191 46.8284L121.779 47.3202L121.036 47.5663L115.922 47.5688L114.932 47.3235L114.437 46.7503L114.272 46.4226L114.269 40.4424L114.598 39.7868L115.011 39.377L115.753 39.1309Z" fill="#FDFDFD"/>
<path d="M115.439 73.2104L121.296 73.2076L122.039 73.6988L122.287 74.2721L122.369 74.7636L122.372 80.1705L122.125 80.9079L121.795 81.3176L121.053 81.5638L117.176 81.6475L115.608 81.5664L114.866 81.321L114.453 80.8296L114.288 80.502L114.285 74.3579L114.697 73.7023L115.109 73.3744L115.439 73.2104Z" fill="#FDFDFD"/>
<g clip-path="url(#clip1_5_2003)">
<path fill-rule="evenodd" clip-rule="evenodd" d="M120.687 42.6285L116.972 40.6914C116.351 40.3673 115.577 40.7781 115.577 41.4312L115.579 45.3088C115.579 45.9628 116.353 46.372 116.975 46.0473L120.688 44.1076C121.314 43.7803 121.314 42.9552 120.687 42.6285Z" fill="black"/>
</g>
<path d="M160.939 0.606046L160.939 0.851811L160.197 1.99907L159.537 1.75362L159.867 1.58962L160.527 1.09777L160.939 0.606046Z" fill="#FDFDFD"/>
<path d="M116.14 61.9003C116.14 62.0123 116.183 62.1071 116.268 62.1846C116.353 62.2622 116.46 62.3031 116.588 62.3073L117.482 62.3069C117.605 62.3068 117.712 62.2658 117.802 62.1839C117.892 62.102 117.934 62.0072 117.929 61.8994L117.928 58.635C117.928 58.5229 117.885 58.426 117.8 58.3442C117.715 58.2623 117.608 58.2236 117.48 58.228L116.586 58.2284C116.463 58.2285 116.356 58.2673 116.266 58.3449C116.176 58.4225 116.134 58.5195 116.138 58.6359L116.14 61.9003ZM118.824 61.899C118.824 62.011 118.869 62.1058 118.959 62.1833C119.049 62.2609 119.153 62.3018 119.272 62.306L120.166 62.3056C120.289 62.3055 120.396 62.2645 120.486 62.1826C120.576 62.1007 120.618 62.0059 120.614 61.8981L120.612 58.6337C120.612 58.5217 120.569 58.4247 120.484 58.3429C120.399 58.261 120.292 58.2223 120.164 58.2267L119.27 58.2271C119.147 58.2272 119.043 58.266 118.957 58.3436C118.872 58.4212 118.827 58.5182 118.823 58.6346L118.824 61.899Z" fill="black"/>
<path d="M115.589 79.8311C115.59 79.9839 115.643 80.1131 115.749 80.2189C115.856 80.3246 115.989 80.3804 116.149 80.3862L120.622 80.384C120.776 80.3839 120.909 80.328 121.022 80.2163C121.134 80.1046 121.187 79.9753 121.181 79.8284L121.179 75.3769C121.179 75.2241 121.126 75.0919 121.019 74.9803C120.913 74.8687 120.78 74.8159 120.62 74.8219L116.146 74.824C115.992 74.8241 115.859 74.877 115.747 74.9829C115.635 75.0887 115.581 75.2209 115.587 75.3796L115.589 79.8311Z" fill="black"/>
</g>
<defs>
<clipPath id="clip0_5_2003">
<rect width="168.94" height="123.995" fill="white" transform="translate(0 0.0860291) rotate(-0.0275298)"/>
</clipPath>
<clipPath id="clip1_5_2003">
<rect width="6.50909" height="5.58272" fill="white" transform="translate(115.112 40.5789) rotate(-0.0275298)"/>
</clipPath>
</defs>
</svg>
